<svg width="450" height="167" xmlns="http://www.w3.org/2000/svg">
 <g>
  <path id="svg_1" fill="#ffffff" d="m34,16c-3.9132,7.985 2.5659,17.2603 8.0903,22.9606c13.5326,13.9639 36.3954,18.7671 45.5316,37.0394c7.9697,15.9395 -9.8769,22.2094 -15.6219,34c5.3466,1.181 9.2101,-2.324 12.8264,-6.09c6.7599,-7.0389 12.4325,-17.0855 8.706,-26.91c-7.5396,-19.8772 -28.9939,-25.1923 -43.5324,-38.1736c-3.8612,-3.4476 -7.8924,-7.2865 -10.4668,-11.8264c-2.1627,-3.8138 -2.3226,-7.8922 -5.5332,-11z"/>
  <path id="svg_2" fill="#ffffff" d="m32,17l0,0m58,0c-0.5387,6.132 -2.9669,11.4181 -7.1049,16c-3.7647,4.1684 -8.9599,7.1991 -9.8951,13c13.0078,-1.8995 20.967,-17.062 21,-29l-4,0m-53,5l1,1l-1,-1m-4,3l1,1l-1,-1m5,0l1,1l-1,-1m1,2l1,1l-1,-1m-5,1l1,1l-1,-1m7,2l1,1l-1,-1m-3,4l1,1l-1,-1m13,6l1,1l-1,-1m-4,3l1,1l-1,-1m8,0l1,1l-1,-1m3,2l1,1l-1,-1m5,3l1,1l-1,-1m2,1l1,1l-1,-1m5,3l1,1l-1,-1m-8,1l1,1l-1,-1m2,1l1,1l-1,-1m9,0l1,1l-1,-1m3,2l1,1l-1,-1m18,95c-0.0103,-3.742 -0.0098,-7.438 -1.3295,-11c-9.2546,-24.979 -45.4009,-26.082 -54.537,-51c-2.8965,-7.9001 1.6915,-15.3124 6.9599,-20.9961c3.3401,-3.6035 7.0935,-5.9608 7.9066,-11.0039c-5.4891,1.1075 -9.1838,4.8721 -12.8156,9c-2.3786,2.7035 -4.5166,5.7061 -5.9992,9c-4.0234,8.9389 -0.9245,17.5868 4.7145,24.9992c10.1998,13.4078 26.9252,18.1658 39.0995,29.1718c3.7735,3.411 7.4741,7.262 9.8118,11.829c2.031,3.968 1.5506,8.462 6.189,10m-25,-94l1,1l-1,-1m12,3c-2.72653,-3.23162 3.4925,4.2048 6,6c-1.7952,-2.5075 -3.4925,-4.2048 -6,-6m-4,3l1,1l-1,-1m14,9l1,1m0,1l1,1l-1,-1m-3,13l1,1l-1,-1m4,3l1,1l-1,-1m-8,5l1,1l-1,-1m5,1l1,1l-1,-1m-3,4l1,1l-1,-1m-11,4l1,1l-1,-1m4,3l1,1l-1,-1m-8,3l1,1l-1,-1m2,1l1,1"/>
  <path id="svg_3" fill="#ffffff" d="m36,151c2.8757,-9.012 5.9739,-15.125 12.9807,-21.83c1.1797,-1.129 5.4762,-4.375 3.2678,-6.353c-2.3003,-2.06 -6.6578,2.265 -8.2091,3.623c-4.5834,4.01 -18.0695,20.515 -8.0394,24.56z"/>
  <path id="svg_4" fill="#ffffff" d="m50,127l1,1l-1,-1m-11,4l1,1l-1,-1m-3,4l1,1l-1,-1m-3,6l1,1l-1,-1m4,3l1,1l-1,-1"/>
  <text font-weight="500" xml:space="preserve" text-anchor="start" font-family="IBM Plex Sans" font-size="70" letter-spacing="1.5" id="svg_8" y="105.192527" x="141.396404" fill="#ffffff">Biomage</text>
 </g>
</svg>